<svg class="orbit-search-button-icon-with-text" width="15" height="16" viewBox="0 0 15 16" version="1.1" xmlns="http://www.w3.org/2000/svg" xmlns:xlink="http://www.w3.org/1999/xlink"> <path d="M6,-5.32907052e-15 C9.3137085,-5.32907052e-15 12,2.6862915 12,6 C12,7.43892143 11.4934776,8.75953821 10.6490096,9.79327337 L15,14.24 L13.2782609,16 L8.72578477,11.3465317 C7.90789326,11.7643456 6.98146665,12 6,12 C2.6862915,12 -1.687539e-14,9.3137085 -1.687539e-14,6 C-1.687539e-14,2.6862915 2.6862915,-5.32907052e-15 6,-5.32907052e-15 Z M6,1.5 C3.51471863,1.5 1.5,3.51471863 1.5,6 C1.5,8.48528137 3.51471863,10.5 6,10.5 C8.48528137,10.5 10.5,8.48528137 10.5,6 C10.5,3.51471863 8.48528137,1.5 6,1.5 Z"></path> </svg>